
<svg width="200px" height="200px" viewBox="0 0 200 200" version="1.1" xmlns="http://www.w3.org/2000/svg" xmlns:xlink="http://www.w3.org/1999/xlink">
    <defs>
        <linearGradient x1="41.0379545%" y1="41.4921875%" x2="98.5508019%" y2="80.8671875%" id="linearGradient-dw-9-f2nrm-1">
            <stop stop-color="#5D67E8" offset="0%"></stop>
            <stop stop-color="#C850C0" offset="100%"></stop>
        </linearGradient>
        <linearGradient x1="50%" y1="50%" x2="110.919471%" y2="82.5182102%" id="linearGradient-dw-9-f2nrm-2">
            <stop stop-color="#A350C8" offset="0%"></stop>
            <stop stop-color="#EF4444" offset="100%"></stop>
        </linearGradient>
    </defs>
    <g id="页面-1" stroke="none" stroke-width="1" fill="none" fill-rule="evenodd">
        <g id="a" fill-rule="nonzero">
            <path d="M137.982944,72.1038632 C135.600021,68.7627436 131.449881,66.736867 126.988304,66.736867 C122.526726,66.736867 118.376586,68.7627436 115.993663,72.1038632 L111.540138,78.254042 L65.3038851,143.139112 C63.8615263,145.17596 61.3379993,146.412625 58.6235971,146.412816 C55.7438497,146.413 53.0920049,145.025476 51.7022251,142.791347 C50.3124453,140.557218 50.4048139,137.830277 51.9433091,135.673973 L102.200105,65.1455318 L113.241137,49.6947487 C115.928451,45.930224 115.928451,41.131521 113.241137,37.3669963 C110.858214,34.0258767 106.708074,32 102.246496,32 C97.7849186,32 93.6347785,34.0258767 91.2518556,37.3669963 L86.8137939,43.54457 L6.44931076,156.3709 C4.63259486,158.901065 4.51573801,162.106839 6.14440278,164.735546 C7.77306756,167.364252 10.8887235,168.998615 14.2739073,169 L72.5408638,169 C75.7294113,169.002148 78.6958294,167.553854 80.3963876,165.164697 L126.926449,99.8550038 L137.982944,84.4042207 C140.672352,80.6501339 140.672352,75.85795 137.982944,72.1038632 Z" id="路径" fill="url(#linearGradient-dw-9-f2nrm-1)"></path>
            <path d="M192.735075,169 C195.401055,168.976478 197.84294,167.667027 199.113377,165.579642 C200.383814,163.492257 200.282869,160.955441 198.849704,158.953375 L175.598828,126.281486 L166.426885,113.239957 L153.525018,95.1070591 C153.02006,94.4164983 152.157392,94 151.232032,94 C150.306672,94 149.444004,94.4164983 148.939046,95.1070591 L136.006606,113.308024 L108.995233,151.425228 C106.484928,154.954755 106.332896,159.42179 108.598565,163.080227 C110.864233,166.738664 115.187812,169.007539 119.879273,169 C124.291041,169.002037 128.395083,166.987009 130.748025,163.663573 L144.612946,144.101279 C146.039027,142.077291 148.533617,140.848583 151.216745,140.848583 C153.899874,140.848583 156.394464,142.077291 157.820545,144.101279 C159.440051,146.364092 159.440051,149.257708 157.820545,151.520521 L147.119944,166.495136 C146.763052,166.986186 146.740191,167.612695 147.060534,168.123342 C147.380877,168.633989 147.991941,168.945115 148.648601,168.931915 L192.735075,169 Z" id="路径" fill="url(#linearGradient-dw-9-f2nrm-2)"></path>
            <rect id="矩形" x="0" y="0" width="200" height="200"></rect>
        </g>
    </g>
</svg>
